<svg id="Layer_1" data-name="Layer 1" xmlns="http://www.w3.org/2000/svg" viewBox="0 0 65 65"><defs><style>.cls-1{fill:#6e0e4e;}.cls-2{fill:#6e0e4e;}.cls-3{fill:#fff;}</style></defs><path class="cls-1" d="M63.66,18.16C62,8.5,56,2.84,46.19,1A70.16,70.16,0,0,0,32.46,0,70.12,70.12,0,0,0,18.74,1C9,2.84,2.93,8.5,1.27,18.16a80,80,0,0,0,.15,29.23c1.73,8.83,8,14.84,16.93,16.28a93.28,93.28,0,0,0,14.11,1.2,93.3,93.3,0,0,0,14.12-1.2c8.91-1.44,15.2-7.45,16.93-16.28A80.22,80.22,0,0,0,63.66,18.16Z"/><path class="cls-3" d="M32.39,25.42a0,0,0,0,0,0,0,3,3,0,0,1-.21-.25L32.07,25c-.18-.19-.26-.27-.33-.36a16.88,16.88,0,0,0-13.06-6.16v0H13.12a1.24,1.24,0,0,0-1.24,1.24V45.58a.82.82,0,0,0,.81.82h5.18a.82.82,0,0,0,.81-.82V27.32c0-.51,0-1,0-1.52a.63.63,0,0,1,.63-.62,10,10,0,0,1,5.61,2.08A10.39,10.39,0,0,1,29,35.94h0v9.64a.82.82,0,0,0,.82.82H35a.82.82,0,0,0,.81-.82V34.77A15.62,15.62,0,0,0,32.39,25.42Z"/><path class="cls-3" d="M49.67,25.39c-3.23-4.15-7.81-6.91-13-6.91h0a.83.83,0,0,0-.83.82v5.05a.81.81,0,0,0,.75.81,12.67,12.67,0,0,1,5.59,2.1,10.4,10.4,0,0,1,4.1,8.68v9.64a.82.82,0,0,0,.81.82h5.18a.82.82,0,0,0,.81-.82V34.77A15.3,15.3,0,0,0,49.67,25.39Z"/></svg>